<?xml version="1.0" standalone="no"?>
<!DOCTYPE svg PUBLIC "-//W3C//DTD SVG 20010904//EN"
 "http://www.w3.org/TR/2001/REC-SVG-20010904/DTD/svg10.dtd">
<svg version="1.0" xmlns="http://www.w3.org/2000/svg"
 width="1024.000000pt" height="1024.000000pt" viewBox="0 0 1024.000000 1024.000000"
 preserveAspectRatio="xMidYMid meet">
<metadata>
Created by potrace 1.11, written by Peter Selinger 2001-2013
</metadata>
<g transform="translate(0.000000,1024.000000) scale(0.100000,-0.100000)"
fill="#000000" stroke="none">
<path d="M0 5120 l0 -5120 5120 0 5120 0 0 5120 0 5120 -5120 0 -5120 0 0
-5120z m2568 2784 c112 -29 247 -115 330 -209 75 -86 137 -227 159 -360 13
-78 9 -500 -5 -592 -18 -117 -17 -113 -52 -199 -54 -135 -98 -203 -190 -294
-141 -139 -265 -188 -480 -190 -170 -2 -339 51 -457 144 -114 89 -226 284
-269 471 -24 103 -37 311 -31 479 11 289 72 444 236 598 106 101 223 156 356
168 109 11 335 1 403 -16z m5587 1 c225 -53 397 -214 466 -437 39 -127 49
-198 55 -378 6 -170 3 -207 -31 -395 -20 -110 -90 -272 -161 -372 -148 -208
-420 -301 -724 -248 -213 37 -361 155 -465 370 -64 135 -80 182 -106 332 -28
162 -30 393 -4 524 3 13 8 38 10 54 27 154 117 322 217 408 148 126 292 169
538 163 78 -3 165 -11 205 -21z m-2850 -80 c247 -26 473 -153 615 -345 72 -97
149 -269 166 -367 2 -13 8 -49 14 -81 44 -260 26 -651 -41 -887 -11 -38 -22
-74 -23 -80 -2 -5 -6 -17 -9 -25 -3 -8 -13 -37 -23 -65 -21 -60 -63 -138 -118
-220 -201 -301 -614 -440 -1006 -338 -199 51 -330 138 -480 318 -64 78 -168
310 -196 440 -1 6 -7 33 -14 60 -20 88 -25 174 -24 435 1 274 7 360 29 455 17
74 72 224 89 245 7 8 25 38 41 65 36 63 172 199 248 249 83 54 236 115 337
134 89 17 274 21 395 7z m-2884 -1991 c152 -45 164 -153 40 -362 -17 -29 -31
-61 -31 -70 0 -9 14 -55 31 -102 17 -47 44 -121 59 -165 31 -90 67 -175 74
-175 7 0 139 380 151 435 3 11 23 72 46 135 22 63 42 120 43 125 16 61 48 154
59 169 14 19 17 18 83 -19 154 -85 183 -99 284 -143 58 -24 168 -66 246 -92
248 -84 305 -123 370 -252 38 -76 42 -108 16 -131 -38 -35 -302 -161 -412
-197 -197 -66 -367 -127 -416 -151 -62 -30 -131 -94 -172 -161 -22 -36 -68
-149 -76 -190 -3 -13 -7 -32 -9 -43 -3 -11 -8 -43 -12 -72 -4 -28 -12 -59 -18
-67 -21 -28 -113 -36 -397 -36 -292 0 -483 11 -615 35 -44 8 -98 17 -120 20
-82 12 -374 89 -485 128 -128 44 -306 125 -362 164 -24 16 -42 38 -49 62 -18
58 -21 455 -5 521 27 105 44 148 72 186 67 89 92 103 351 190 148 50 297 116
529 237 30 15 58 26 62 23 5 -3 23 -49 40 -103 112 -342 246 -742 256 -762 13
-23 13 -23 28 20 60 172 139 387 147 400 7 12 0 30 -26 69 -86 128 -113 237
-75 302 45 76 172 108 293 72z m5630 -11 c102 -45 114 -134 40 -289 -23 -49
-50 -97 -59 -107 -15 -16 -14 -22 7 -80 13 -34 34 -91 46 -127 38 -112 98
-260 105 -260 4 0 19 33 33 73 37 106 97 289 103 312 7 31 162 486 167 492 3
2 70 -29 149 -71 170 -89 261 -128 428 -185 153 -52 266 -98 303 -125 56 -40
110 -140 134 -246 9 -42 11 -411 1 -493 -3 -35 -13 -66 -24 -79 -47 -51 -221
-130 -438 -198 -126 -40 -372 -104 -431 -113 -16 -3 -71 -12 -121 -21 -136
-24 -349 -36 -639 -35 -339 0 -378 7 -390 68 -2 12 -6 30 -9 39 -3 9 -8 36
-11 59 -8 59 -50 178 -81 230 -35 61 -128 150 -187 180 -27 13 -128 51 -226
83 -177 58 -301 106 -421 162 -179 83 -194 94 -187 142 6 47 60 145 109 197
47 51 82 67 334 152 170 58 249 93 415 183 75 41 140 74 146 74 6 0 69 -177
141 -392 72 -216 141 -415 153 -442 l21 -49 34 79 c18 43 33 85 34 92 0 7 20
64 45 128 25 63 45 123 45 134 0 11 -25 68 -56 128 -68 131 -77 189 -38 246
24 34 61 60 114 77 43 14 161 4 211 -18z m-2736 -743 c34 -18 61 -42 83 -75
31 -45 33 -54 29 -110 -2 -33 -6 -67 -8 -75 -8 -27 -70 -154 -83 -170 -7 -8
-26 -38 -41 -65 l-27 -50 50 -140 c129 -357 163 -445 173 -445 4 0 18 33 33
73 45 129 87 252 90 262 11 51 252 760 267 784 l19 32 93 -51 c247 -137 465
-233 731 -319 252 -83 295 -108 387 -223 38 -49 96 -182 104 -241 26 -191 25
-445 -1 -649 -10 -74 -46 -108 -187 -177 -342 -167 -757 -287 -1232 -358 -105
-16 -186 -18 -665 -16 -523 2 -584 3 -640 16 -14 4 -47 9 -73 12 -96 11 -374
71 -522 112 -261 72 -445 140 -673 251 -153 73 -153 74 -159 472 -4 249 -2
304 12 350 21 75 18 66 50 145 21 53 93 139 154 185 65 49 111 68 296 125 66
20 179 60 250 88 122 48 421 193 510 248 55 34 72 28 90 -34 8 -29 30 -95 49
-147 19 -52 80 -237 136 -410 105 -324 179 -530 190 -530 9 0 33 59 95 235 31
88 72 201 92 252 l36 92 -31 48 c-17 26 -52 91 -78 143 -43 86 -48 103 -52
178 l-4 84 55 53 c31 30 71 59 89 64 18 6 85 9 148 8 102 -2 122 -5 165 -27z"/>
</g>
</svg>
